<mxfile host="app.diagrams.net" modified="2022-08-30T04:37:06.711Z" agent="5.0 (Macintosh; Intel Mac OS X 10_15_7) AppleWebKit/537.36 (KHTML, like Gecko) Chrome/104.0.0.0 Safari/537.36" etag="4QlKv2EIzjOn2-Gfb282" version="20.2.7" type="github">
  <diagram id="G5pQ3DJFAONGSXKyBIfJ" name="Page-1">
    <mxGraphModel dx="1298" dy="703" grid="1" gridSize="10" guides="1" tooltips="1" connect="1" arrows="1" fold="1" page="1" pageScale="1" pageWidth="850" pageHeight="1100" math="0" shadow="0">
      <root>
        <mxCell id="0" />
        <mxCell id="1" parent="0" />
        <mxCell id="MdWdMFWJyQxuW0JwbtC5-1" value="JavaScript Basics - primitive data types" style="text;html=1;strokeColor=none;fillColor=none;align=center;verticalAlign=middle;whiteSpace=wrap;rounded=0;" parent="1" vertex="1">
          <mxGeometry x="285" y="20" width="240" height="30" as="geometry" />
        </mxCell>
        <mxCell id="MdWdMFWJyQxuW0JwbtC5-2" value="&lt;ol&gt;&lt;li&gt;String&lt;/li&gt;&lt;li&gt;Number&lt;/li&gt;&lt;li&gt;Boolean&lt;/li&gt;&lt;li&gt;Symbols&lt;/li&gt;&lt;li&gt;null&lt;/li&gt;&lt;li&gt;undefined&lt;/li&gt;&lt;li&gt;Object&lt;/li&gt;&lt;/ol&gt;" style="text;strokeColor=none;fillColor=none;html=1;whiteSpace=wrap;verticalAlign=middle;overflow=hidden;" parent="1" vertex="1">
          <mxGeometry x="140" y="50" width="170" height="120" as="geometry" />
        </mxCell>
        <mxCell id="MdWdMFWJyQxuW0JwbtC5-3" value="&lt;i&gt;&lt;b&gt;note: first 6 are primitive and the last one is NOT&lt;/b&gt;&lt;/i&gt;" style="text;html=1;strokeColor=none;fillColor=none;align=center;verticalAlign=middle;whiteSpace=wrap;rounded=0;" parent="1" vertex="1">
          <mxGeometry x="290" y="95" width="230" height="30" as="geometry" />
        </mxCell>
        <mxCell id="MdWdMFWJyQxuW0JwbtC5-4" value="" style="ellipse;whiteSpace=wrap;html=1;aspect=fixed;" parent="1" vertex="1">
          <mxGeometry x="325" y="240" width="150" height="150" as="geometry" />
        </mxCell>
        <mxCell id="MdWdMFWJyQxuW0JwbtC5-5" value="" style="endArrow=none;dashed=1;html=1;dashPattern=1 3;strokeWidth=2;rounded=0;" parent="1" edge="1">
          <mxGeometry width="50" height="50" relative="1" as="geometry">
            <mxPoint x="80" y="210" as="sourcePoint" />
            <mxPoint x="790" y="210" as="targetPoint" />
          </mxGeometry>
        </mxCell>
        <mxCell id="MdWdMFWJyQxuW0JwbtC5-6" value="data type INSTANCE" style="text;html=1;strokeColor=none;fillColor=none;align=center;verticalAlign=middle;whiteSpace=wrap;rounded=0;" parent="1" vertex="1">
          <mxGeometry x="370" y="300" width="60" height="30" as="geometry" />
        </mxCell>
        <mxCell id="MdWdMFWJyQxuW0JwbtC5-7" value="" style="endArrow=classic;html=1;rounded=0;exitX=1;exitY=1;exitDx=0;exitDy=0;" parent="1" source="MdWdMFWJyQxuW0JwbtC5-4" target="MdWdMFWJyQxuW0JwbtC5-8" edge="1">
          <mxGeometry width="50" height="50" relative="1" as="geometry">
            <mxPoint x="480" y="390" as="sourcePoint" />
            <mxPoint x="520" y="420" as="targetPoint" />
          </mxGeometry>
        </mxCell>
        <mxCell id="MdWdMFWJyQxuW0JwbtC5-8" value="Has properties" style="rounded=1;whiteSpace=wrap;html=1;" parent="1" vertex="1">
          <mxGeometry x="500" y="440" width="120" height="60" as="geometry" />
        </mxCell>
        <mxCell id="MdWdMFWJyQxuW0JwbtC5-9" value="" style="endArrow=classic;html=1;rounded=0;exitX=0;exitY=1;exitDx=0;exitDy=0;" parent="1" source="MdWdMFWJyQxuW0JwbtC5-4" target="MdWdMFWJyQxuW0JwbtC5-10" edge="1">
          <mxGeometry width="50" height="50" relative="1" as="geometry">
            <mxPoint x="463.0330085889909" y="378.0330085889909" as="sourcePoint" />
            <mxPoint x="530" y="430" as="targetPoint" />
          </mxGeometry>
        </mxCell>
        <mxCell id="MdWdMFWJyQxuW0JwbtC5-10" value="Has Methods" style="rounded=1;whiteSpace=wrap;html=1;" parent="1" vertex="1">
          <mxGeometry x="190" y="440" width="120" height="60" as="geometry" />
        </mxCell>
        <mxCell id="MdWdMFWJyQxuW0JwbtC5-11" value="" style="endArrow=none;dashed=1;html=1;dashPattern=1 3;strokeWidth=2;rounded=0;entryX=0.5;entryY=1;entryDx=0;entryDy=0;exitX=0.5;exitY=0;exitDx=0;exitDy=0;" parent="1" source="MdWdMFWJyQxuW0JwbtC5-12" target="MdWdMFWJyQxuW0JwbtC5-10" edge="1">
          <mxGeometry width="50" height="50" relative="1" as="geometry">
            <mxPoint x="250" y="580" as="sourcePoint" />
            <mxPoint x="260" y="530" as="targetPoint" />
          </mxGeometry>
        </mxCell>
        <mxCell id="MdWdMFWJyQxuW0JwbtC5-12" value="ex:&amp;nbsp; .trim() on a String instance" style="text;html=1;strokeColor=none;fillColor=none;align=center;verticalAlign=middle;whiteSpace=wrap;rounded=0;" parent="1" vertex="1">
          <mxGeometry x="155" y="590" width="190" height="30" as="geometry" />
        </mxCell>
        <mxCell id="MdWdMFWJyQxuW0JwbtC5-13" value="" style="endArrow=none;dashed=1;html=1;dashPattern=1 3;strokeWidth=2;rounded=0;entryX=0.5;entryY=1;entryDx=0;entryDy=0;exitX=0.5;exitY=0;exitDx=0;exitDy=0;" parent="1" source="MdWdMFWJyQxuW0JwbtC5-14" target="MdWdMFWJyQxuW0JwbtC5-8" edge="1">
          <mxGeometry width="50" height="50" relative="1" as="geometry">
            <mxPoint x="260" y="590" as="sourcePoint" />
            <mxPoint x="260" y="510" as="targetPoint" />
          </mxGeometry>
        </mxCell>
        <mxCell id="MdWdMFWJyQxuW0JwbtC5-14" value="ex: length OF A STRING" style="text;html=1;strokeColor=none;fillColor=none;align=center;verticalAlign=middle;whiteSpace=wrap;rounded=0;" parent="1" vertex="1">
          <mxGeometry x="465" y="590" width="190" height="30" as="geometry" />
        </mxCell>
        <mxCell id="2UyR7oOJQtnqq6swLskZ-1" value="" style="endArrow=none;dashed=1;html=1;dashPattern=1 3;strokeWidth=2;rounded=0;" edge="1" parent="1">
          <mxGeometry width="50" height="50" relative="1" as="geometry">
            <mxPoint x="80" y="650" as="sourcePoint" />
            <mxPoint x="790" y="650" as="targetPoint" />
          </mxGeometry>
        </mxCell>
        <mxCell id="2UyR7oOJQtnqq6swLskZ-2" value="Wrapper Object" style="ellipse;whiteSpace=wrap;html=1;aspect=fixed;" vertex="1" parent="1">
          <mxGeometry x="345" y="670" width="120" height="120" as="geometry" />
        </mxCell>
        <mxCell id="2UyR7oOJQtnqq6swLskZ-3" value="" style="endArrow=classic;html=1;rounded=0;exitX=0.5;exitY=1;exitDx=0;exitDy=0;entryX=0.5;entryY=0;entryDx=0;entryDy=0;" edge="1" parent="1" source="2UyR7oOJQtnqq6swLskZ-2" target="2UyR7oOJQtnqq6swLskZ-5">
          <mxGeometry width="50" height="50" relative="1" as="geometry">
            <mxPoint x="430" y="810" as="sourcePoint" />
            <mxPoint x="310" y="880" as="targetPoint" />
          </mxGeometry>
        </mxCell>
        <mxCell id="2UyR7oOJQtnqq6swLskZ-5" value="&quot;wraps&quot; around primitive data types allowing them to basically use methods and properties as if they were an object" style="rounded=1;whiteSpace=wrap;html=1;" vertex="1" parent="1">
          <mxGeometry x="320" y="830" width="170" height="100" as="geometry" />
        </mxCell>
        <mxCell id="2UyR7oOJQtnqq6swLskZ-6" value="" style="endArrow=classic;html=1;rounded=0;exitX=0.5;exitY=1;exitDx=0;exitDy=0;entryX=0.5;entryY=0;entryDx=0;entryDy=0;" edge="1" parent="1" source="2UyR7oOJQtnqq6swLskZ-5" target="2UyR7oOJQtnqq6swLskZ-7">
          <mxGeometry width="50" height="50" relative="1" as="geometry">
            <mxPoint x="430" y="960" as="sourcePoint" />
            <mxPoint x="405" y="960" as="targetPoint" />
          </mxGeometry>
        </mxCell>
        <mxCell id="2UyR7oOJQtnqq6swLskZ-7" value="ex: &quot;hola&quot;.toUpperCase" style="shape=parallelogram;perimeter=parallelogramPerimeter;whiteSpace=wrap;html=1;fixedSize=1;" vertex="1" parent="1">
          <mxGeometry x="307.5" y="1000" width="195" height="60" as="geometry" />
        </mxCell>
      </root>
    </mxGraphModel>
  </diagram>
</mxfile>
